<?xml version="1.0" standalone="no"?>
<!DOCTYPE svg PUBLIC "-//W3C//DTD SVG 20010904//EN"
 "http://www.w3.org/TR/2001/REC-SVG-20010904/DTD/svg10.dtd">
<svg version="1.0" xmlns="http://www.w3.org/2000/svg"
 width="418.000000pt" height="268.000000pt" viewBox="0 0 418.000000 268.000000"
 preserveAspectRatio="xMidYMid meet">
<metadata>
Created by potrace 1.15, written by Peter Selinger 2001-2017
</metadata>
<g transform="translate(0.000000,268.000000) scale(0.100000,-0.100000)"
fill="#000000" stroke="none">
<path d="M1190 2280 l0 -380 380 0 380 0 0 380 0 380 -380 0 -380 0 0 -380z
m670 -5 l0 -295 -295 0 -295 0 0 295 0 295 295 0 295 0 0 -295z"/>
<path d="M1520 2365 l0 -125 140 0 140 0 0 40 0 40 -95 0 -95 0 0 85 0 85 -45
0 -45 0 0 -125z"/>
<path d="M2050 2280 l0 -380 380 0 380 0 0 380 0 380 -380 0 -380 0 0 -380z
m680 -5 l0 -295 -295 0 -295 0 0 295 0 295 295 0 295 0 0 -295z"/>
<path d="M2390 2365 l0 -125 135 0 135 0 0 40 0 40 -90 0 -90 0 0 85 0 85 -45
0 -45 0 0 -125z"/>
<path d="M1370 1410 l0 -380 380 0 380 0 0 380 0 380 -380 0 -380 0 0 -380z
m680 5 l0 -295 -295 0 -295 0 0 295 0 295 295 0 295 0 0 -295z"/>
<path d="M1710 1500 l0 -130 135 0 135 0 0 45 0 45 -90 0 -90 0 0 85 0 85 -45
0 -45 0 0 -130z"/>
<path d="M2240 1410 l0 -380 380 0 380 0 0 380 0 380 -380 0 -380 0 0 -380z
m670 5 l0 -295 -295 0 -295 0 0 295 0 295 295 0 295 0 0 -295z"/>
<path d="M2574 1617 c-2 -7 -3 -65 -2 -128 l3 -114 138 -3 137 -3 0 46 0 45
-95 0 -95 0 0 85 0 85 -40 0 c-24 0 -43 -5 -46 -13z"/>
<path d="M900 779 c-41 -12 -67 -34 -86 -71 -36 -70 -6 -119 108 -177 92 -46
115 -72 98 -115 -19 -51 -81 -60 -151 -22 l-44 23 -18 -23 c-17 -23 -17 -24 8
-40 35 -23 94 -43 128 -44 71 -1 137 54 144 122 4 38 1 49 -23 78 -16 19 -57
46 -94 63 -36 16 -73 36 -82 45 -27 23 -23 67 8 91 32 25 60 26 115 4 40 -16
42 -15 55 2 20 26 18 29 -21 48 -47 22 -102 28 -145 16z"/>
<path d="M1335 781 c-83 -21 -145 -81 -170 -163 -19 -64 -19 -72 0 -136 19
-62 52 -104 113 -139 87 -51 212 -32 284 44 60 63 81 189 43 264 -50 99 -168
156 -270 130z m132 -72 c144 -70 113 -304 -45 -335 -73 -15 -159 32 -188 103
-36 85 -1 191 76 231 55 28 101 28 157 1z"/>
<path d="M1875 781 c-93 -24 -154 -83 -175 -173 -40 -164 96 -317 259 -293 47
7 141 51 141 67 0 4 -5 17 -12 27 -11 18 -13 18 -49 -6 -23 -15 -58 -26 -92
-30 -48 -5 -62 -2 -101 21 -64 37 -89 89 -84 171 9 137 130 202 262 140 38
-18 39 -18 52 0 11 15 11 21 1 33 -28 34 -142 58 -202 43z"/>
<path d="M3841 780 c-48 -11 -91 -58 -97 -106 -8 -59 21 -96 108 -140 94 -46
108 -60 108 -99 0 -40 -17 -55 -69 -62 -31 -4 -50 0 -85 20 l-45 25 -15 -23
c-14 -21 -13 -24 2 -39 24 -21 97 -46 136 -46 44 0 97 29 123 69 49 73 17 137
-96 192 -84 41 -115 71 -105 103 16 54 81 70 147 37 l36 -19 16 24 c14 22 14
24 -9 39 -26 17 -83 36 -106 34 -8 -1 -30 -5 -49 -9z"/>
<path d="M160 550 l0 -230 30 0 30 0 0 85 0 85 65 0 c114 0 174 42 183 128 11
114 -52 162 -211 162 l-97 0 0 -230z m207 160 c40 -24 52 -73 29 -118 -18 -35
-62 -52 -133 -52 l-43 0 0 95 0 95 58 0 c39 0 67 -6 89 -20z"/>
<path d="M2200 551 l0 -231 30 0 30 0 0 91 0 90 51 -3 52 -3 47 -85 c45 -81
49 -85 84 -88 l38 -3 -26 43 c-14 24 -39 68 -55 98 l-30 55 34 30 c42 39 54
92 34 149 -24 66 -53 80 -180 84 l-109 4 0 -231z m179 170 c13 -3 33 -19 44
-33 18 -24 19 -32 8 -67 -15 -51 -34 -61 -110 -61 l-61 0 0 85 0 85 48 -1 c26
-1 58 -4 71 -8z"/>
<path d="M2683 663 c-22 -65 -59 -169 -81 -230 l-41 -113 33 0 c31 0 33 3 52
63 l20 62 91 3 91 3 22 -66 c21 -63 23 -65 55 -65 l34 0 -31 83 c-16 45 -54
147 -82 227 l-53 145 -34 3 -34 3 -42 -118z"/>
<path d="M2940 755 c0 -25 1 -25 80 -25 l80 0 0 -205 0 -205 30 0 30 0 2 203
3 202 78 3 c74 3 77 4 77 27 l0 25 -190 0 -190 0 0 -25z"/>
<path d="M3390 550 l0 -230 140 0 140 0 0 25 0 25 -110 0 -110 0 0 80 0 80 85
0 c84 0 85 0 85 25 0 25 -1 25 -85 25 l-85 0 0 75 0 75 100 0 100 0 0 25 0 25
-130 0 -130 0 0 -230z"/>
<path d="M20 215 c0 -13 237 -15 2070 -15 1833 0 2070 2 2070 15 0 13 -237 15
-2070 15 -1833 0 -2070 -2 -2070 -15z"/>
</g>
</svg>
